<?xml version="1.0" encoding="UTF-8"?>
<svg id="base_and_svg_shadow" data-name="base and svg shadow" xmlns="http://www.w3.org/2000/svg" xmlns:xlink="http://www.w3.org/1999/xlink" viewBox="0 0 600 600">
  <defs>
    <style>
      .cls-1 {
        fill: #4285f4;
      }

      .cls-2 {
        fill: url(#linear-gradient);
      }

      .cls-3 {
        fill: #ccc;
      }

      .cls-4 {
        fill: #34a853;
      }

      .cls-5 {
        fill: #202124;
      }

      .cls-6 {
        fill: #fff;
      }

      .cls-7 {
        fill: #174ea6;
      }

      .cls-8 {
        fill: #e6f4ea;
      }

      .cls-9 {
        fill: url(#linear-gradient-2);
      }

      .cls-9, .cls-10, .cls-11 {
        stroke: #000;
        stroke-width: 2px;
      }

      .cls-10 {
        fill: url(#linear-gradient-4);
      }

      .cls-11 {
        fill: url(#linear-gradient-3);
      }

      .cls-12 {
        filter: url(#AI_Shadow_3);
        opacity: .2;
      }
    </style>
    <filter id="AI_Shadow_3" x="-15%" y="-15%" width="140%" height="130%">
      <feGaussianBlur in="SourceAlpha" result="blur" stdDeviation="10"/>
      <feOffset dx="0" dy="5" in="blur" result="offsetBlurredAlpha"/>
      <feMerge>
        <feMergeNode in="offsetBlurredAlpha"/>
        <feMergeNode in="SourceGraphic"/>
      </feMerge>
    </filter>
    <linearGradient id="linear-gradient" x1="142.37" y1="207.32" x2="546.3" y2="444.07" gradientUnits="userSpaceOnUse">
      <stop offset=".23" stop-color="#d588cb"/>
      <stop offset=".62" stop-color="#a293e5"/>
      <stop offset="1" stop-color="#6a9ef3"/>
    </linearGradient>
    <linearGradient id="linear-gradient-2" x1="140.57" y1="463.76" x2="243.09" y2="305.43" gradientTransform="translate(0 574.1) scale(1 -1)" gradientUnits="userSpaceOnUse">
      <stop offset="0" stop-color="#c6ff00"/>
      <stop offset=".47" stop-color="#89fa9b"/>
      <stop offset="1" stop-color="#e6f4ea"/>
    </linearGradient>
    <linearGradient id="linear-gradient-3" x1="272.4" y1="503.77" x2="318.16" y2="432.43" xlink:href="#linear-gradient-2"/>
    <linearGradient id="linear-gradient-4" x1="272.4" y1="345.67" x2="318.16" y2="274.32" xlink:href="#linear-gradient-2"/>
  </defs>
  <g id="svg_shadow" data-name="svg shadow" class="cls-12">
    <circle class="cls-3" cx="300" cy="300" r="241.5"/>
  </g>
  <g id="base">
    <g id="bg">
      <path class="cls-2" d="M300.5,534c-62.5,0-121.27-24.34-165.46-68.54-44.2-44.2-68.54-102.96-68.54-165.46s24.34-121.27,68.54-165.46c44.2-44.2,102.96-68.54,165.46-68.54s121.27,24.34,165.46,68.54c44.2,44.2,68.54,102.96,68.54,165.46s-24.34,121.27-68.54,165.46c-44.2,44.2-102.96,68.54-165.46,68.54Z"/>
      <path class="cls-6" d="M300.5,73.5c30.58,0,60.25,5.99,88.16,17.79,26.97,11.41,51.19,27.74,72,48.55s37.14,45.03,48.55,72c11.81,27.91,17.79,57.58,17.79,88.16s-5.99,60.24-17.79,88.16c-11.41,26.97-27.74,51.19-48.55,72-20.81,20.81-45.03,37.14-72,48.55-27.91,11.81-57.58,17.79-88.16,17.79s-60.25-5.99-88.16-17.79c-26.97-11.41-51.19-27.74-72-48.55-20.81-20.81-37.14-45.03-48.55-72-11.81-27.91-17.79-57.58-17.79-88.16s5.99-60.24,17.79-88.16c11.41-26.97,27.74-51.19,48.55-72s45.03-37.14,72-48.55c27.91-11.81,57.58-17.79,88.16-17.79M300.5,58.5c-133.38,0-241.5,108.12-241.5,241.5s108.12,241.5,241.5,241.5,241.5-108.12,241.5-241.5S433.88,58.5,300.5,58.5h0Z"/>
    </g>
    <path id="device" class="cls-1" d="M422.72,118.26l-125.62-10.94c-1.38-.12-2.76-.18-4.13-.2l116.95,10.18c30.76,2.68,53.37,31.62,50.49,64.65l-26.16,300.46c-36.32,26.53-80.8,42.55-128.98,43.54,56.56-1.05,108.07-22.78,147.27-57.96l24.79-284.71c1.67-39.29-17.33-61.29-54.61-65.03Z"/>
    <path id="screen" class="cls-8" d="M409.93,117.3l-116.96-10.18c-30.76-2.68-58.03,21.92-60.9,54.95l-29.75,341.66c29.71,14.28,63.01,22.28,98.18,22.28,50.02,0,96.24-16.19,133.76-43.6l26.16-300.46c2.88-33.02-19.73-61.97-50.49-64.65Z"/>
    <g id="droid">
      <path class="cls-4" d="M423.76,410.04c-.03-.4-.07-.8-.11-1.19-.23-2.46-.56-4.89-.97-7.3-.72-4.21-1.72-8.33-2.97-12.35-1.06-3.4-2.3-6.72-3.71-9.96-1.81-4.16-3.91-8.17-6.26-12.01-2.88-4.71-6.16-9.16-9.79-13.31-1.52-1.74-3.11-3.43-4.75-5.06-3.56-3.53-7.4-6.79-11.48-9.75.04-.06.08-.12.12-.18,2.19-3.24,4.38-6.47,6.57-9.7,2.14-3.16,4.28-6.32,6.42-9.48,1.54-2.27,3.08-4.54,4.61-6.81.37-.54.66-1.1.9-1.68.65-1.62.8-3.36.48-5.01-.08-.41-.19-.81-.32-1.2-.13-.39-.3-.78-.48-1.15-.65-1.28-1.61-2.42-2.87-3.29-1.11-.77-2.38-1.27-3.7-1.48-.55-.09-1.11-.12-1.67-.1-.47.01-.93.07-1.39.15-1.65.32-3.21,1.1-4.47,2.3-.45.43-.87.92-1.23,1.45-1.54,2.27-3.08,4.54-4.61,6.81l-6.42,9.48c-2.19,3.24-4.38,6.46-6.57,9.7-.24.35-.48.71-.72,1.06-.29-.14-.57-.28-.86-.41-10.48-4.86-22.01-7.92-34.22-8.78-.34-.02-.66-.05-1-.06-10.87-.65-21.44.5-31.41,3.21-1.16.31-2.3.65-3.43,1-.18-.36-.35-.72-.53-1.08-1.72-3.51-3.44-7.01-5.16-10.52-1.68-3.43-3.36-6.85-5.04-10.28-1.21-2.46-2.42-4.92-3.62-7.38-.29-.58-.63-1.12-1.01-1.61-1.08-1.37-2.52-2.36-4.11-2.9-.44-.15-.9-.27-1.35-.35-.55-.1-1.11-.14-1.67-.13-1.34.02-2.66.34-3.87.95-1.37.69-2.48,1.68-3.3,2.85-.24.34-.45.7-.64,1.07s-.35.75-.48,1.15c-.54,1.59-.64,3.33-.22,5.02.15.61.37,1.2.65,1.79,1.21,2.46,2.42,4.92,3.62,7.38,1.68,3.43,3.36,6.85,5.04,10.28,1.72,3.51,3.44,7.01,5.16,10.52.01.03.03.06.04.09-4.11,2.17-8.05,4.62-11.8,7.34-2.24,1.63-4.42,3.35-6.51,5.16-4.17,3.6-8.03,7.55-11.55,11.81-2.87,3.48-5.5,7.16-7.87,11.02-1.85,3.01-3.54,6.13-5.06,9.35-1.8,3.8-3.36,7.75-4.66,11.82-.75,2.33-1.4,4.69-1.98,7.09-.09.39-.18.78-.27,1.17-.32,1.39-.6,2.8-.86,4.22l193.64,13.57c-.05-1.44-.14-2.87-.26-4.3h.02Z"/>
      <path class="cls-5" d="M379.41,384.44c4.06-2.31,5.04-8.23,2.19-13.23-2.85-5-8.44-7.19-12.49-4.88-4.05,2.31-5.04,8.23-2.19,13.23,2.85,5,8.44,7.18,12.49,4.88Z"/>
      <path class="cls-5" d="M291.56,373.77c3.59-4.5,3.54-10.5-.11-13.41-3.65-2.91-9.51-1.62-13.1,2.88-3.59,4.5-3.54,10.5.11,13.41,3.65,2.91,9.51,1.62,13.1-2.88Z"/>
    </g>
    <path class="cls-7" d="M466.41,294.38c-.17,0-.33,0-.5-.02-1.72-.13-3.29-.93-4.42-2.24-1.12-1.31-1.67-2.98-1.53-4.71l3.59-46.21c.28-3.56,3.38-6.22,6.95-5.95,1.72.13,3.29.93,4.42,2.24,1.12,1.31,1.67,2.98,1.53,4.71l-3.59,46.21c-.26,3.39-3.1,5.97-6.45,5.97ZM470,237.23c-2.31,0-4.27,1.78-4.45,4.12l-3.59,46.21c-.09,1.19.28,2.35,1.06,3.25.78.91,1.86,1.46,3.05,1.55,2.46.2,4.61-1.65,4.8-4.11l3.59-46.21c.09-1.19-.28-2.35-1.06-3.25-.78-.91-1.86-1.46-3.05-1.55-.12,0-.23-.01-.35-.01Z"/>
    <path class="cls-7" d="M459.92,374.54c-.17,0-.34,0-.5-.02-3.56-.28-6.22-3.4-5.95-6.95l3.59-46.21c.28-3.56,3.4-6.21,6.95-5.95,3.56.28,6.23,3.4,5.95,6.95l-3.59,46.21c-.26,3.39-3.1,5.97-6.45,5.97ZM463.5,317.39c-1.06,0-2.08.38-2.9,1.07-.91.78-1.46,1.86-1.55,3.05l-3.59,46.21c-.19,2.46,1.65,4.61,4.11,4.8,2.46.19,4.61-1.65,4.8-4.11l3.59-46.21c.09-1.19-.28-2.35-1.06-3.25-.78-.91-1.86-1.46-3.05-1.55-.12,0-.24-.01-.35-.01Z"/>
    <path id="spark" class="cls-9" d="M181.17,100.21c2.43-6.66,11.85-6.66,14.28,0l10.99,30.11c5.98,16.38,18.81,29.32,35.13,35.45l29.81,11.19c6.57,2.47,6.57,11.77,0,14.24l-29.81,11.18c-16.32,6.12-29.15,19.07-35.13,35.45l-10.99,30.11c-2.43,6.66-11.85,6.66-14.28,0l-10.99-30.11c-5.98-16.38-18.81-29.32-35.13-35.45l-29.81-11.18c-6.57-2.47-6.57-11.77,0-14.24l29.81-11.19c16.32-6.12,29.16-19.07,35.13-35.45l10.99-30.11Z"/>
    <path id="spark-2" data-name="spark" class="cls-11" d="M290.14,67.05c1.05-3.55,6.08-3.55,7.14,0l5.83,19.69c1.06,3.57,3.85,6.36,7.41,7.41l19.69,5.83c3.55,1.05,3.55,6.08,0,7.14l-19.69,5.83c-3.57,1.06-6.36,3.85-7.41,7.41l-5.83,19.69c-1.05,3.55-6.08,3.55-7.14,0l-5.83-19.69c-1.06-3.57-3.84-6.36-7.41-7.41l-19.69-5.83c-3.55-1.05-3.55-6.08,0-7.14l19.69-5.83c3.57-1.06,6.36-3.85,7.41-7.41l5.83-19.69Z"/>
    <path id="spark-3" data-name="spark" class="cls-10" d="M290.14,225.16c1.05-3.55,6.08-3.55,7.14,0l5.83,19.69c1.06,3.57,3.85,6.36,7.41,7.41l19.69,5.83c3.55,1.05,3.55,6.08,0,7.14l-19.69,5.83c-3.57,1.06-6.36,3.85-7.41,7.41l-5.83,19.69c-1.05,3.55-6.08,3.55-7.14,0l-5.83-19.69c-1.06-3.57-3.84-6.36-7.41-7.41l-19.69-5.83c-3.55-1.05-3.55-6.08,0-7.14l19.69-5.83c3.57-1.06,6.36-3.85,7.41-7.41l5.83-19.69Z"/>
  </g>
</svg>