<svg xmlns="http://www.w3.org/2000/svg" xmlns:xlink="http://www.w3.org/1999/xlink" xml:space="preserve" style="enable-background:new 0 0 600 600" viewBox="0 0 600 600"><style>.st1{fill:#fff}.st18{fill:#1967d2}.st24{fill:#e8f0fe}.st54{opacity:.3;fill:#1b3a57}.st60{fill:none;stroke:#9aa1a5;stroke-width:6;stroke-linecap:round;stroke-linejoin:round;stroke-miterlimit:10}.st71{fill:#ffc928}.st103{fill:none;stroke:#1b3a57;stroke-width:6;stroke-linecap:round;stroke-linejoin:round;stroke-miterlimit:10}</style><filter id="AI_Shadow_3" width="140%" height="130%" x="-15%" y="-15%" filterUnits="objectBoundingBox"><feGaussianBlur in="SourceAlpha" result="blur" stdDeviation="10"/><feOffset dy="5" in="blur" result="offsetBlurredAlpha"/><feMerge><feMergeNode in="offsetBlurredAlpha"/><feMergeNode in="SourceGraphic"/></feMerge></filter><g id="Layer_9"><g style="opacity:.2;filter:url(#AI_Shadow_3)"><circle id="svg_shadow_00000100374453326087005770000011092497770916964798_" cx="299.5" cy="297.3" r="239.7" style="fill:#cbcbcb"/></g><g id="base_00000147921942902770975960000008328039897819106441_"><circle cx="299.9" cy="297.7" r="241.5" style="fill:#f2f2f2"/><path d="M300.1 71.6c30.6 0 60.2 6 88.2 17.8 27 11.4 51.2 27.7 72 48.5s37.1 45 48.5 72c11.8 27.9 17.8 57.6 17.8 88.2s-6 60.2-17.8 88.2c-11.4 27-27.7 51.2-48.5 72s-45 37.1-72 48.5c-27.9 11.8-57.6 17.8-88.2 17.8s-60.2-6-88.2-17.8c-27-11.4-51.2-27.7-72-48.5s-37.1-45-48.5-72c-11.8-27.9-17.8-57.6-17.8-88.2s6-60.2 17.8-88.2c11.4-27 27.7-51.2 48.5-72s45-37.1 72-48.5c28-11.8 57.7-17.8 88.2-17.8m0-15c-133.4 0-241.5 108.1-241.5 241.5s108.1 241.5 241.5 241.5 241.5-108.1 241.5-241.5S433.5 56.6 300.1 56.6z" class="st1"/></g><path id="base_00000073703820126939503810000002414947459888290981_" d="M526.5 298.1c0 30.6-6 60.2-17.8 88.2-11.4 27-27.7 51.2-48.6 72-20.8 20.8-45 37.1-72 48.6-27.9 11.8-57.6 17.8-88.2 17.8s-60.2-6-88.2-17.8c-27-11.4-51.2-27.7-72-48.6-20.8-20.8-37.1-45-48.6-72-11.8-27.9-17.8-57.6-17.8-88.2 0-15.9 1.6-31.5 4.8-46.8 3-14.1 7.3-27.9 13-41.4 11.4-27 27.8-51.2 48.6-72 20.8-20.8 45-37.1 72-48.5 27.9-11.8 57.6-17.8 88.2-17.8h.9c2.3 0 4.6 0 6.9.1 27.8.9 54.8 6.9 80.3 17.7 16.8 7.1 32.5 16.1 47 26.9 8.8 6.5 17.1 13.8 25 21.6 20.8 20.8 37.1 45 48.6 72 11.9 27.9 17.9 57.6 17.9 88.2z" class="st18"/><path d="M123.6 312.6c-5.5 0-10-4.5-10-10V160.3c0-5.5 4.5-10 10-10H406l64.8 206.5-347.2-44.2z" class="st54"/><defs><path id="SVGID_1_" d="M526.5 298.1c0 30.6-6 60.2-17.8 88.2-11.4 27-27.7 51.2-48.6 72-20.8 20.8-45 37.1-72 48.6-27.9 11.8-57.6 17.8-88.2 17.8s-60.2-6-88.2-17.8c-27-11.4-51.2-27.7-72-48.6-20.8-20.8-37.1-45-48.6-72-11.8-27.9-17.8-57.6-17.8-88.2 0-15.9 1.6-31.5 4.8-46.8 3-14.1 7.3-27.9 13-41.4 11.4-27 27.8-51.2 48.6-72 20.8-20.8 45-37.1 72-48.5 27.9-11.8 57.6-17.8 88.2-17.8h.9c2.3 0 4.6 0 6.9.1 27.8.9 54.8 6.9 80.3 17.7 16.8 7.1 32.5 16.1 47 26.9 8.8 6.5 17.1 13.8 25 21.6 20.8 20.8 37.1 45 48.6 72 11.9 27.9 17.9 57.6 17.9 88.2z"/></defs><clipPath id="SVGID_00000070833954416064020490000016025068660843643268_"><use xlink:href="#SVGID_1_" style="overflow:visible"/></clipPath><g style="clip-path:url(#SVGID_00000070833954416064020490000016025068660843643268_)"><circle cx="505.7" cy="206.8" r="40.3" class="st24"/><path d="M484.9 235.1c0 22.3-18 19.7-40.3 19.7-22.3 0-40.3 2.5-40.3-19.7s18-40.3 40.3-40.3c22.3 0 40.3 18 40.3 40.3z" class="st24"/><path d="M552.5 263.9H415.2l-4.5-24.3L566 218.7z" class="st24"/></g><path d="M123.6 493.3c-5.5 0-10-4.5-10-10V340.9c0-5.5 4.5-10 10-10H406l64.8 206.5-347.2-44.1z" style="opacity:.3;clip-path:url(#SVGID_00000070833954416064020490000016025068660843643268_);fill:#1b3a57"/><path d="M529.7 545.4H131.5c-5.5 0-10-4.5-10-10l105.8-400.7h302.4c5.5 0 10 4.5 10 10v390.7c0 5.6-4.5 10-10 10z" style="clip-path:url(#SVGID_00000070833954416064020490000016025068660843643268_);fill:#e5eaf0"/><path d="M121.6 172.4h140.8v377.5H121.6z" style="clip-path:url(#SVGID_00000070833954416064020490000016025068660843643268_);fill:#ff8a65"/><path d="M516.4 183.9H121.6l22-49.1h372.8z" style="clip-path:url(#SVGID_00000070833954416064020490000016025068660843643268_);fill:#1b3a57"/><g style="clip-path:url(#SVGID_00000070833954416064020490000016025068660843643268_)"><path d="M423.4 321.7h133.4M423.4 394.9h26.9M423.4 440.1h133.4M423.4 417.5h53.8" class="st60"/></g><path d="M121.6 184v-39.3c0-5.5 4.5-10 10-10h82.6v49.1l-92.6.2z" style="fill:#1b3a57"/><circle cx="155.8" cy="312.6" r="68.9" class="st54"/><circle cx="163.8" cy="301" r="68.9" class="st1"/><circle cx="165.8" cy="159.4" r="7" style="fill:#ff8a65"/><circle cx="218.1" cy="159.4" r="7" class="st18"/><circle cx="192.1" cy="159.4" r="7" class="st71"/><path d="M389.7 338.6h-87.6c-5.5 0-10-4.5-10-10v-55.1c0-5.5 4.5-10 10-10h87.6c5.5 0 10 4.5 10 10v55.1c0 5.5-4.4 10-10 10zM389.7 456.9h-87.6c-5.5 0-10-4.5-10-10v-55.1c0-5.5 4.5-10 10-10h87.6c5.5 0 10 4.5 10 10v55.1c0 5.6-4.4 10-10 10z" class="st60"/><circle cx="98.7" cy="232.2" r="3.8" class="st71"/><circle cx="392" cy="115.7" r="5.9" class="st71"/><circle cx="371.3" cy="101.3" r="3.5" class="st71"/><circle cx="225.1" cy="111.9" r="2.3" class="st71"/><path d="M143 346.7c-.3 0-.7-.1-1-.3-.7-.5-1.2-1.5-.7-2.5l15.3-36.1c.1-.2 0-.4 0-.5 0-.1-.1-.2-.3-.2h-17.1c-.6 0-1.2-.3-1.5-.8-.4-.6-.5-1.3-.2-1.9l16.4-40.2c.3-.7 1-1.2 1.7-1.2h30.6c.7 0 1.3.4 1.6 1 .4.7.3 1.5-.1 2.1l-16.1 25.4c-.1.2-.1.4 0 .6 0 .1.1.2.3.2h16.6c.7 0 1.4.4 1.7 1.1.3.7.2 1.6-.3 2.2l-45.5 50.6c-.5.3-.9.5-1.4.5z" style="fill:#ffa000"/><path d="M423.4 278.4h81.2M423.4 301h53.8" class="st60"/><path d="M292.2 213.3h185M292.2 235.9H346" class="st103"/></g></svg>